<svg width="223" height="261" viewBox="0 0 223 261" fill="none" xmlns="http://www.w3.org/2000/svg">
<path fill-rule="evenodd" clip-rule="evenodd" d="M211.577 178.496C195.869 214.942 127.893 246.314 60.3441 212.63C21.4906 193.256 6.79352 146.571 6.02395 124.977C5.41877 107.995 16.4221 89.8902 23.0647 82.1113C37.1846 65.5763 112.54 44.9814 129.752 46.0391C154.051 45.2548 169.21 69.5182 188.336 70.675C201.935 71.4975 242.658 106.384 211.577 178.496Z" fill="#60BA1E"/>
<path fill-rule="evenodd" clip-rule="evenodd" d="M112.334 120.082C112.258 121.404 112.351 122.74 112.608 124.031C112.716 124.576 113.415 124.676 113.777 124.313C114.14 123.949 114.237 123.344 114.276 122.787C114.334 121.964 114.315 121.133 114.221 120.314C114.172 119.891 114.097 119.454 113.879 119.112C113.661 118.769 113.262 118.55 112.922 118.703C112.487 118.898 112.365 119.539 112.334 120.082Z" fill="white"/>
<path fill-rule="evenodd" clip-rule="evenodd" d="M57.44 87.624C61.4237 85.315 66.181 84.9012 70.4124 86.4961C71.4757 84.105 73.0417 82.0233 74.9333 80.4865C75.2985 80.19 75.8209 79.922 76.1491 80.2725C76.0168 82.7293 75.8845 85.1935 76.0085 87.6508C76.1051 89.5637 76.357 91.4655 76.3799 93.3816C76.4465 98.9194 74.5914 104.283 72.0682 108.968C78.1261 113.737 82.6932 121.042 84.743 129.243C83.8858 129.761 61.4531 130.674 49.3187 129.538C49.0377 129.761 48.7749 129.223 48.7427 128.827C48.4181 124.826 48.2358 120.752 48.9449 116.819C49.6544 112.887 51.3495 109.065 54.1497 106.738C51.5508 100.115 52.5617 91.991 49.3909 85.7187C49.2027 85.3463 49.0442 84.7655 49.374 84.5692C49.4962 84.4965 49.6422 84.5191 49.7772 84.5459C51.9881 84.9851 54.0947 86.1227 55.8142 87.807C56.2578 88.2417 56.9218 87.9243 57.44 87.624Z" fill="white"/>
<path fill-rule="evenodd" clip-rule="evenodd" d="M143.403 128.838C143.388 128.838 145.706 124.77 147.128 122.877C148.426 121.149 149.188 118.879 149.24 116.579C144.751 116.371 140.285 115.503 135.979 114.002C135.32 113.772 134.641 113.511 134.141 112.958C132.975 111.667 133.263 109.415 133.865 107.673C134.595 105.558 135.656 103.601 136.979 101.927C137.431 101.354 137.922 100.801 138.218 100.103C138.515 99.4048 138.577 98.5063 138.177 97.8823C137.504 96.8313 137.361 95.4505 137.291 94.1392C137.221 92.8276 137.189 91.4642 136.68 90.2931C136.171 89.1218 135.015 88.2114 133.942 88.5952C133.682 88.13 134.196 87.593 134.649 87.4246C136.359 86.7884 138.275 87.3452 139.774 88.4995C141.273 89.6539 142.411 91.3465 143.388 93.1084C143.77 93.7964 144.414 94.6042 145.037 94.2262C149.283 91.6451 154.466 91.2689 158.953 93.2163C159.577 93.4867 160.536 93.6026 160.663 92.8388C161.296 89.0334 164.009 85.8196 167.253 85.0331C165.978 86.1029 165.901 88.2792 166.156 90.0909C166.411 91.9023 166.861 93.8319 166.224 95.51C165.711 96.8644 167.005 98.1374 168.052 98.9695C169.634 100.226 171.049 101.771 172.23 103.531C173.398 105.272 174.372 107.511 173.838 109.635C173.14 112.416 170.344 113.517 167.938 114.203C165.589 114.873 163.24 115.544 160.891 116.214C160.848 118.896 161.666 121.585 163.148 123.631C164.336 125.272 166.063 126.964 165.685 129.07C166.476 130.539 159.049 130.461 143.403 128.838Z" fill="white"/>
<path fill-rule="evenodd" clip-rule="evenodd" d="M149.041 165.105C149.851 165.691 150.748 166.393 151.673 166.132C153.816 165.527 156.109 165.679 158.18 166.563C159.052 166.935 159.842 165.88 160.388 165.002C161.973 162.455 164.047 160.326 166.411 158.817C168.041 161.949 166.39 166.283 167.807 169.554C170.001 174.616 169.418 181.153 166.379 185.577C169.568 189.224 171.737 194.074 172.478 199.221C172.099 199.351 152.673 202.171 142.006 198.788C141.888 195.161 143.006 191.499 145.06 188.78C142.01 184.576 140.522 178.872 141.046 173.391C141.101 172.821 141.171 172.212 140.954 171.698C139.816 169.001 139.032 166.1 138.638 163.128C138.615 162.951 138.595 162.756 138.675 162.603C138.782 162.399 139.014 162.355 139.217 162.335C142.632 162.01 146.128 162.996 149.041 165.105Z" fill="white"/>
<path fill-rule="evenodd" clip-rule="evenodd" d="M56.6518 199.714C57.0398 196.994 57.4279 194.274 57.8162 191.555C57.917 190.849 57.9027 189.903 57.3214 189.682C55.508 188.993 53.9755 187.352 53.2274 185.299C52.9916 184.652 52.2647 184.422 51.6864 184.613C51.108 184.803 50.6466 185.301 50.2092 185.783C50.4587 184.641 51.3551 183.734 52.3565 183.61C52.6964 182.939 52.2097 182.013 51.5644 181.819C50.9195 181.624 50.2404 181.964 49.7017 182.423C49.6597 181.696 50.4153 181.34 50.9876 181.055C51.56 180.77 52.1193 179.868 51.6311 179.416C51.4185 179.219 51.1158 179.254 50.8473 179.299C50.0712 179.429 49.2949 179.559 48.5189 179.689C48.6069 178.958 49.4192 178.77 50.0483 178.713C50.6778 178.657 51.4901 178.298 51.4202 177.564C51.1506 174.735 51.7357 171.866 52.7127 169.259C53.5221 167.099 51.1402 164.936 51.2966 162.585C51.3087 162.403 51.3456 162.204 51.4711 162.095C51.6209 161.965 51.8309 162.017 52.009 162.081C53.2352 162.524 54.3719 163.302 55.3034 164.335C55.7557 164.836 56.4841 164.494 57.0529 164.197C59.1509 163.101 61.6096 162.988 63.7747 163.887C65.7297 164.699 67.464 160.783 69.4015 161.65C68.907 163.555 68.4125 165.46 67.9178 167.365C67.7813 167.891 67.6523 168.494 67.9002 168.96C68.736 170.531 69.2427 172.34 69.364 174.185C69.4496 175.485 69.6646 177.241 70.7749 177.343C70.2914 177.591 69.758 177.902 69.5906 178.488C69.4232 179.075 69.9955 179.849 70.4288 179.495C70.8028 179.189 71.407 179.444 71.5289 179.958C70.8881 179.885 70.193 179.967 69.6923 180.44C69.1913 180.914 68.9947 181.871 69.419 182.438C70.3506 181.988 71.451 182.047 72.3436 182.594C71.8117 183.052 71.0808 182.916 70.4219 182.871C69.7627 182.825 68.9599 183.003 68.7268 183.726C67.9484 186.139 66.0354 188 63.8666 188.456C62.798 188.681 62.6267 190.372 62.7147 191.638C62.8997 194.295 63.0843 196.951 63.269 199.608C62.8884 200.031 58.4703 200.617 56.6518 199.714Z" fill="white"/>
<path fill-rule="evenodd" clip-rule="evenodd" d="M27.0829 188.305C27.0072 189.627 27.0999 190.963 27.357 192.254C27.4654 192.798 28.1635 192.899 28.5262 192.535C28.8891 192.172 28.9857 191.567 29.0248 191.01C29.0826 190.186 29.0641 189.356 28.9697 188.536C28.9209 188.113 28.8459 187.677 28.6278 187.334C28.4098 186.992 28.0111 186.773 27.6704 186.925C27.2365 187.12 27.114 187.762 27.0829 188.305Z" fill="white"/>
<path fill-rule="evenodd" clip-rule="evenodd" d="M114.831 195.595C114.966 195.684 114.947 195.94 114.833 196.062C114.719 196.185 114.554 196.212 114.399 196.233C113.861 196.305 113.27 196.364 112.824 196.004C113.051 195.814 113.277 195.625 113.504 195.436C113.361 195.197 113.082 195.149 112.835 195.113C112.587 195.078 112.306 195.008 112.186 194.753C112.065 194.498 112.328 194.092 112.526 194.27C113.136 194.817 114.034 194.879 114.696 194.42C115.131 194.118 115.544 193.594 116.041 193.707C115.693 194.499 115.005 195.072 114.253 195.198C114.27 195.505 114.593 195.728 114.831 195.595Z" fill="#00160A"/>
<path fill-rule="evenodd" clip-rule="evenodd" d="M28.4654 195.183C27.9271 195.256 27.3346 195.315 26.8888 194.954C27.1171 194.764 27.3454 194.574 27.5737 194.385C27.4165 194.152 27.1342 194.112 26.883 194.072C26.6318 194.031 26.3459 193.941 26.2419 193.67C26.1378 193.399 26.449 193.021 26.6266 193.233C27.0629 193.753 27.7877 193.787 28.3772 193.55C28.9667 193.313 29.4699 192.858 30.0075 192.489C30.0211 193.419 29.0897 193.91 28.3231 194.158C28.3409 194.462 28.6619 194.679 28.8955 194.546C29.0312 194.634 29.0126 194.889 28.8987 195.012C28.7847 195.135 28.6195 195.162 28.4654 195.183Z" fill="#00160A"/>
<path fill-rule="evenodd" clip-rule="evenodd" d="M27.2889 193.345C26.4467 192.978 26.2771 191.694 26.2425 190.643C26.2196 189.948 26.1967 189.253 26.1738 188.557C26.161 188.168 26.1491 187.77 26.2473 187.397C26.4112 186.776 26.8981 186.289 27.4478 186.196C27.9976 186.104 28.5822 186.41 28.8894 186.952C29.065 187.261 29.1505 187.628 29.2176 187.991C29.3607 188.765 29.4322 189.557 29.4304 190.349C29.4287 191.117 29.3479 191.919 28.9839 192.558C28.6198 193.197 27.9036 193.613 27.2889 193.345ZM28.0435 192.766C28.4794 192.606 28.6395 191.99 28.7013 191.46C28.8086 190.54 28.8176 189.604 28.7281 188.682C28.6831 188.218 28.6057 187.736 28.3616 187.366C28.1175 186.996 27.6607 186.78 27.3046 186.991C26.863 187.254 26.8122 187.956 26.8205 188.535C26.8312 189.29 26.842 190.046 26.8528 190.801C26.8595 191.271 26.8703 191.76 27.0562 192.176C27.2422 192.593 27.6606 192.908 28.0435 192.766Z" fill="#00160A"/>
<path fill-rule="evenodd" clip-rule="evenodd" d="M112.788 187.084C113.387 186.637 114.235 186.958 114.686 187.601C115.137 188.243 115.272 189.11 115.313 189.94C115.337 190.421 115.336 190.904 115.308 191.385C115.269 192.06 115.171 192.755 114.851 193.319C114.531 193.882 113.941 194.281 113.377 194.137C112.892 194.012 112.525 193.518 112.349 192.974C112.174 192.429 112.157 191.836 112.142 191.255C112.128 190.701 112.113 190.148 112.099 189.594C112.075 188.673 112.124 187.58 112.788 187.084ZM113.5 193.501C113.827 193.595 114.173 193.361 114.359 193.032C114.544 192.704 114.601 192.3 114.636 191.908C114.714 191.046 114.704 190.173 114.61 189.313C114.561 188.873 114.483 188.417 114.252 188.065C114.02 187.714 113.593 187.502 113.248 187.688C112.835 187.911 112.741 188.54 112.721 189.073C112.683 190.081 112.711 191.094 112.805 192.097C112.859 192.672 113.021 193.362 113.5 193.501Z" fill="#00160A"/>
<path fill-rule="evenodd" clip-rule="evenodd" d="M112.715 189.001C112.639 190.323 112.732 191.659 112.989 192.95C113.098 193.494 113.795 193.595 114.158 193.231C114.521 192.868 114.618 192.263 114.657 191.706C114.714 190.882 114.696 190.051 114.602 189.232C114.553 188.809 114.478 188.373 114.26 188.03C114.042 187.688 113.643 187.469 113.302 187.621C112.869 187.816 112.746 188.458 112.715 189.001Z" fill="white"/>
<path fill-rule="evenodd" clip-rule="evenodd" d="M111.516 125.33C111.578 125.092 111.84 125.006 112.046 125.062C112.253 125.119 112.428 125.274 112.623 125.372C113.35 125.736 114.184 125.262 114.802 124.684C115.01 124.49 115.343 124.294 115.5 124.545C115.127 125.286 114.464 125.817 113.738 125.954C113.76 126.258 114.078 126.475 114.315 126.348C114.449 126.437 114.429 126.69 114.316 126.812C114.202 126.934 114.038 126.96 113.885 126.981C113.351 127.054 112.766 127.113 112.318 126.766C112.557 126.545 112.796 126.325 113.036 126.105C112.481 126.018 111.948 125.746 111.516 125.33Z" fill="#00160A"/>
<path fill-rule="evenodd" clip-rule="evenodd" d="M139.217 162.335C142.632 162.01 146.128 162.996 149.041 165.105C149.851 165.691 150.748 166.393 151.673 166.132C153.816 165.527 156.109 165.679 158.18 166.563C159.052 166.935 159.842 165.88 160.388 165.002C161.973 162.455 164.047 160.326 166.411 158.817C168.041 161.949 166.39 166.283 167.807 169.554C170.001 174.616 169.418 181.153 166.379 185.577C169.568 189.224 171.737 194.074 172.478 199.221C172.099 199.351 171.85 198.772 171.759 198.322C170.94 194.301 169.315 190.507 167.051 187.334C166.521 186.591 165.654 185.822 164.955 186.338C159.399 190.445 152.354 191.685 146.011 189.674C144.965 189.342 144.222 190.829 143.886 192.036C143.259 194.286 142.633 196.537 142.006 198.788C141.888 195.161 143.006 191.499 145.06 188.78C142.01 184.576 140.522 178.872 141.046 173.391C141.101 172.821 141.171 172.212 140.954 171.698C139.816 169.001 139.032 166.1 138.638 163.128C138.615 162.951 138.595 162.756 138.675 162.603C138.782 162.399 139.014 162.355 139.217 162.335ZM153.066 169.541C151.86 170.837 150.865 172.402 150.152 174.126C149.73 172.473 149.958 170.608 150.76 169.159C149.675 169.634 148.671 170.359 147.822 171.28C147.823 169.903 148.421 168.544 149.379 167.743C148.965 167.758 148.55 167.771 148.135 167.786C148.567 167.159 149.176 166.701 149.843 166.502C146.788 163.952 142.958 162.702 139.217 163.035C139.877 167.599 141.452 171.978 143.779 175.72C142.785 175.244 141.972 174.272 141.587 173.098C141.161 177.803 142.184 182.669 144.427 186.605C144.845 187.338 145.312 188.049 145.918 188.571C146.923 189.438 148.211 189.703 149.455 189.836C154.427 190.368 159.529 189.131 163.912 186.331C164.754 185.793 165.58 185.19 166.247 184.383C167.131 183.316 167.698 181.936 168.063 180.512C169.02 176.777 168.614 172.591 166.966 169.202C166.668 170.242 166.37 171.281 166.073 172.321C165.947 172.76 165.389 173.217 165.283 172.772C166.761 168.672 167.078 164.011 166.173 159.688C162.797 162.311 159.967 165.891 157.996 170.036C157.913 169.07 158.125 168.074 158.585 167.267C156.454 169.178 154.606 171.522 153.15 174.162C152.886 172.645 152.857 171.071 153.066 169.541Z" fill="#00160A"/>
<path fill-rule="evenodd" clip-rule="evenodd" d="M25.1514 126.108C25.4391 126.167 25.7498 126.038 25.9413 125.78C25.3599 125.659 24.8034 125.376 24.3302 124.963C24.5188 124.585 25.0017 124.812 25.3498 124.971C26.193 125.357 27.2458 124.961 27.7384 124.071C27.8709 123.832 28.2258 124.107 28.1869 124.388C28.1479 124.669 27.9109 124.843 27.6973 124.98C27.2892 125.242 26.8811 125.504 26.473 125.765C26.8084 125.801 27.1313 125.98 27.3667 126.262C26.9219 126.686 26.2953 126.695 25.7216 126.682C25.5659 126.679 25.4013 126.673 25.2695 126.576C25.1377 126.479 25.0603 126.256 25.1514 126.108Z" fill="#00160A"/>
<path fill-rule="evenodd" clip-rule="evenodd" d="M111.966 118.701C112.428 117.855 113.59 117.708 114.196 118.419C114.543 118.827 114.688 119.411 114.78 119.977C114.905 120.743 114.956 121.526 114.932 122.306C114.91 123.025 114.815 123.77 114.468 124.364C114.122 124.958 113.468 125.354 112.881 125.14C112.003 124.819 111.805 123.494 111.761 122.419C111.738 121.85 111.716 121.282 111.693 120.714C111.665 120.024 111.648 119.283 111.966 118.701ZM112.333 120.082C112.257 121.404 112.35 122.74 112.607 124.031C112.715 124.576 113.413 124.676 113.776 124.313C114.139 123.949 114.235 123.344 114.275 122.787C114.332 121.964 114.314 121.133 114.219 120.314C114.171 119.891 114.096 119.454 113.878 119.112C113.66 118.769 113.261 118.55 112.92 118.703C112.486 118.898 112.364 119.539 112.333 120.082Z" fill="#00160A"/>
<path fill-rule="evenodd" clip-rule="evenodd" d="M25.2989 119.401C25.2232 120.723 25.3159 122.059 25.573 123.35C25.6814 123.894 26.3795 123.995 26.7422 123.631C27.1051 123.268 27.2017 122.663 27.2408 122.106C27.2986 121.282 27.2801 120.452 27.1857 119.632C27.1369 119.209 27.0619 118.773 26.8438 118.43C26.6258 118.088 26.2271 117.869 25.8864 118.021C25.4525 118.216 25.33 118.858 25.2989 119.401Z" fill="white"/>
<path fill-rule="evenodd" clip-rule="evenodd" d="M25.4728 124.678C24.8364 124.305 24.662 123.352 24.5922 122.523C24.5242 121.715 24.4853 120.904 24.4755 120.092C24.469 119.549 24.4805 118.983 24.6981 118.504C24.9348 117.983 25.4153 117.626 25.9187 117.597C26.4221 117.567 26.9305 117.867 27.2101 118.358C27.3935 118.68 27.4784 119.064 27.5428 119.444C27.6756 120.226 27.7349 121.025 27.7193 121.823C27.7042 122.597 27.606 123.408 27.2149 124.033C26.8237 124.658 26.0652 125.024 25.4728 124.678ZM25.303 123.289C25.3492 123.547 25.4133 123.817 25.5768 123.998C25.8977 124.353 26.4649 124.176 26.736 123.768C27.007 123.36 27.0567 122.812 27.0745 122.296C27.1009 121.533 27.0804 120.769 27.0131 120.01C26.975 119.58 26.917 119.135 26.715 118.773C26.5131 118.41 26.1293 118.153 25.7726 118.267C25.2085 118.447 25.0996 119.315 25.1017 119.999C25.1051 121.101 25.1093 122.211 25.303 123.289Z" fill="#00160A"/>
<path fill-rule="evenodd" clip-rule="evenodd" d="M143.403 128.838C143.546 126.324 145.706 124.77 147.128 122.877C148.426 121.149 149.188 118.879 149.24 116.579C144.751 116.371 140.285 115.503 135.979 114.002C135.32 113.772 134.641 113.511 134.141 112.958C132.975 111.667 133.263 109.415 133.865 107.673C134.595 105.558 135.656 103.601 136.979 101.927C137.431 101.354 137.922 100.801 138.218 100.103C138.515 99.4048 138.577 98.5063 138.177 97.8823C137.504 96.8314 137.361 95.4505 137.291 94.1392C137.221 92.8276 137.189 91.4642 136.68 90.2931C136.171 89.1218 135.015 88.2114 133.942 88.5952C133.682 88.13 134.196 87.593 134.649 87.4246C136.359 86.7884 138.275 87.3452 139.774 88.4995C141.273 89.6539 142.411 91.3465 143.388 93.1085C143.77 93.7964 144.414 94.6042 145.037 94.2262C149.283 91.6451 154.466 91.2689 158.953 93.2163C159.577 93.4867 160.536 93.6026 160.663 92.8388C161.296 89.0334 164.009 85.8196 167.253 85.0331C165.978 86.1029 165.901 88.2792 166.156 90.0909C166.411 91.9023 166.861 93.8319 166.224 95.51C165.711 96.8644 167.005 98.1374 168.052 98.9695C169.634 100.226 171.049 101.771 172.23 103.531C173.398 105.272 174.372 107.511 173.838 109.635C173.14 112.416 170.344 113.517 167.938 114.203C165.589 114.873 163.24 115.544 160.891 116.214C160.848 118.896 161.666 121.585 163.148 123.631C164.336 125.272 166.063 126.964 165.685 129.07C164.881 126.831 163.374 125.061 162.163 123.089C160.951 121.118 159.997 118.65 160.545 116.308C159.472 115.859 158.347 116.756 157.536 117.692C156.725 118.627 155.87 119.73 154.733 119.805C152.86 119.928 151.691 117.254 149.86 116.775C149.818 118.209 149.497 119.632 148.93 120.904C148.326 122.256 147.458 123.419 146.599 124.567C145.534 125.991 144.468 127.414 143.403 128.838ZM145.148 94.8189C144.01 95.4672 145.773 97.9996 144.754 98.879C144.23 95.55 142.744 92.4385 140.596 90.1724C139.2 88.7003 137.349 87.5408 135.503 87.9497C136.582 88.4459 137.239 89.7586 137.522 91.0747C137.804 92.3905 137.794 93.7679 137.991 95.1053C138.337 97.4591 139.343 99.6738 140.817 101.326C140.146 101.316 139.495 100.833 139.201 100.127C137.135 102.301 135.475 105.001 134.369 107.984C133.933 109.161 133.592 110.565 134.132 111.682C134.587 112.624 135.53 113.061 136.41 113.395C139.575 114.594 142.867 115.333 146.187 115.589C148.171 115.741 150.313 115.78 151.899 117.183C152.475 117.693 152.948 118.364 153.576 118.782C154.204 119.2 155.09 119.285 155.578 118.663C157.487 116.233 160.389 115.292 163.162 114.694C165.935 114.097 168.83 113.697 171.248 111.999C172.155 111.361 173.015 110.479 173.309 109.289C173.707 107.671 172.963 105.982 172.121 104.616C170.425 101.862 168.217 99.5409 165.695 97.8607C165.585 98.3716 165.315 98.8331 164.948 99.1382C164.83 98.5599 165.046 97.9697 165.219 97.4104C166.288 93.953 165.801 90.1355 165.3 86.5055C162.019 88.7219 160.314 93.707 161.382 97.9617C160.756 98.0977 160.46 97.0715 160.521 96.3299C160.582 95.5883 160.633 94.6198 160.046 94.3317C155.323 92.015 149.753 92.1974 145.148 94.8189Z" fill="#00160A"/>
<path fill-rule="evenodd" clip-rule="evenodd" d="M58.1941 173.836C58.5235 174.488 58.5601 175.33 58.2883 176.018C58.1441 176.382 57.6565 176.37 57.4118 176.088C57.1668 175.806 57.1026 175.38 57.0553 174.982C57.0122 174.622 56.975 174.242 57.0922 173.906C57.2096 173.569 57.5376 173.304 57.8298 173.428C57.9913 173.496 58.1067 173.663 58.1941 173.836Z" fill="#00160A"/>
<path fill-rule="evenodd" clip-rule="evenodd" d="M63.269 199.608C62.2247 196.506 61.8763 193.087 62.2676 189.785C61.2837 191.046 59.4682 191.261 58.288 190.256C58.5705 193.505 57.9916 196.849 56.6518 199.714C57.0398 196.994 57.4279 194.274 57.8162 191.555C57.917 190.849 57.9027 189.903 57.3214 189.682C55.508 188.993 53.9755 187.352 53.2274 185.299C52.9916 184.652 52.2647 184.422 51.6864 184.613C51.108 184.803 50.6466 185.301 50.2092 185.783C50.4587 184.641 51.3551 183.734 52.3565 183.61C52.6964 182.939 52.2097 182.013 51.5644 181.819C50.9195 181.624 50.2404 181.964 49.7017 182.423C49.6597 181.696 50.4153 181.34 50.9876 181.055C51.56 180.77 52.1193 179.868 51.6311 179.416C51.4185 179.219 51.1158 179.254 50.8473 179.299C50.0712 179.429 49.2949 179.559 48.5189 179.689C48.6069 178.958 49.4192 178.77 50.0483 178.713C50.6778 178.657 51.4901 178.298 51.4202 177.564C51.1506 174.735 51.7357 171.866 52.7127 169.259C53.5221 167.099 51.1402 164.936 51.2966 162.585C51.3087 162.403 51.3456 162.204 51.4711 162.095C51.6209 161.965 51.8309 162.017 52.009 162.081C53.2352 162.524 54.3719 163.302 55.3034 164.335C55.7557 164.836 56.4841 164.494 57.0529 164.197C59.1509 163.101 61.6096 162.988 63.7747 163.887C65.7297 164.699 67.464 160.783 69.4015 161.65C68.907 163.555 68.4125 165.46 67.9178 167.365C67.7813 167.891 67.6523 168.494 67.9002 168.96C68.736 170.531 69.2427 172.34 69.364 174.185C69.4496 175.485 69.6646 177.241 70.7749 177.343C70.2914 177.591 69.758 177.902 69.5906 178.488C69.4232 179.075 69.9955 179.849 70.4288 179.495C70.8028 179.189 71.407 179.444 71.5289 179.958C70.8881 179.885 70.193 179.967 69.6923 180.44C69.1913 180.914 68.9947 181.871 69.419 182.438C70.3506 181.988 71.451 182.047 72.3436 182.594C71.8117 183.052 71.0808 182.916 70.4219 182.871C69.7627 182.825 68.9599 183.003 68.7268 183.726C67.9484 186.139 66.0354 188 63.8666 188.456C62.798 188.681 62.6267 190.372 62.7147 191.638C62.8997 194.295 63.0843 196.951 63.269 199.608ZM64.1315 180.515C63.7893 180.88 63.1994 181.261 62.9458 180.808C64.4098 178.969 66.4171 177.735 68.5413 177.367C68.9748 177.292 69.0708 176.615 69.0399 176.103C68.8874 173.587 68.2704 171.11 67.2434 168.892C67.0894 169.358 66.6018 169.632 66.1947 169.481C67.409 167.345 68.208 164.888 68.5139 162.349C66.5703 163.292 64.8433 164.839 63.558 166.789C63.379 166.041 63.665 165.174 64.2273 164.761C61.6634 163.66 58.7168 163.843 56.2677 165.257C56.3313 165.723 56.3952 166.188 56.4589 166.653C55.2573 164.95 53.6916 163.601 51.9447 162.765C52.5126 165.247 53.3404 167.648 54.404 169.895C53.9419 170.012 53.4406 169.544 53.4353 168.991C52.4704 171.448 51.94 174.138 51.8871 176.842C51.8716 177.619 52.1392 178.671 52.7999 178.59C54.6032 178.372 56.4755 179.106 57.8025 180.552C56.5709 180.136 55.3394 179.719 54.1075 179.303C53.5777 179.124 52.9696 178.956 52.5052 179.304C52.0405 179.652 52.0958 180.732 52.6473 180.745C54.0918 180.252 55.7244 180.583 56.9429 181.616C55.5166 181.244 54.0246 181.221 52.5902 181.547C52.2323 182.557 53.4478 183.348 54.3823 183.343C55.3171 183.338 56.4874 183.22 56.9411 184.176C55.7952 184.107 54.6493 184.037 53.5034 183.967C53.8176 186.357 55.5731 188.386 57.6184 188.726C58.0088 188.79 58.2649 189.216 58.5553 189.528C59.7108 190.768 61.9301 189.926 62.2435 188.127C64.9052 188.032 67.4403 185.96 68.4334 183.068C67.0832 183.292 65.733 183.517 64.3831 183.741C64.6988 183.027 65.4496 182.754 66.1326 182.671C66.8153 182.587 67.5372 182.615 68.1426 182.236C68.7482 181.858 69.1416 180.858 68.7081 180.235C67.021 180.929 65.3342 181.623 63.6472 182.317C64.2085 181.338 65.0934 180.62 66.074 180.349C66.7576 180.16 67.484 180.178 68.1381 179.879C68.7922 179.579 69.3765 178.791 69.1916 177.998C67.3273 178.137 65.5112 179.04 64.1315 180.515Z" fill="#00160A"/>
<path fill-rule="evenodd" clip-rule="evenodd" d="M62.4409 172.329C62.2143 172.316 61.9405 172.264 61.8569 172.017C62.4085 171.286 63.6032 171.519 63.9228 172.42C63.4286 172.389 62.9348 172.36 62.4409 172.329Z" fill="#00160A"/>
<path fill-rule="evenodd" clip-rule="evenodd" d="M61.5935 186.036C61.7704 186.285 61.7335 186.678 61.5673 186.937C61.4011 187.196 61.1353 187.342 60.8683 187.428C60.4794 187.553 60.0188 187.551 59.723 187.231C59.2948 186.767 59.5009 185.823 60.0274 185.528C60.554 185.234 61.2209 185.51 61.5935 186.036ZM60.0581 186.179C59.9243 186.47 60.2082 186.829 60.491 186.83C60.7737 186.831 61.0175 186.61 61.2367 186.401C60.9486 186.033 60.4357 185.941 60.0667 186.192L60.0581 186.179Z" fill="#00160A"/>
<path fill-rule="evenodd" clip-rule="evenodd" d="M63.0739 176.046C62.7263 176.252 62.2869 175.922 62.1555 175.493C62.024 175.064 62.112 174.589 62.2134 174.149C62.2711 173.898 62.3484 173.624 62.5417 173.496C62.8007 173.324 63.1471 173.52 63.2978 173.821C63.4483 174.122 63.4557 174.489 63.459 174.838C63.4631 175.292 63.4209 175.842 63.0739 176.046Z" fill="#00160A"/>
<path fill-rule="evenodd" clip-rule="evenodd" d="M56.8159 186.056C57.8614 186.213 58.9633 185.621 59.5422 184.59C60.1214 183.56 60.149 182.141 59.6112 181.08C59.3266 180.519 58.8937 179.819 59.2383 179.306C59.4131 179.046 59.7239 178.979 60.0066 178.961C60.3158 178.942 60.6441 178.965 60.9022 179.164C61.1606 179.364 61.3107 179.792 61.1537 180.104C60.5338 181.337 60.6286 183.009 61.3824 184.135C62.1364 185.261 63.5012 185.768 64.6721 185.358C64.8862 185.283 65.2373 185.308 65.1951 185.565C65.1847 185.627 65.1478 185.679 65.1101 185.724C64.4485 186.524 63.302 186.394 62.4501 185.899C61.658 185.439 60.9786 184.717 60.5109 183.84C60.0923 184.675 59.6602 185.529 59.0195 186.142C58.3787 186.754 57.4748 187.085 56.7071 186.724C56.4966 186.625 56.2781 186.329 56.4303 186.132C56.5213 186.013 56.6809 186.036 56.8159 186.056Z" fill="#00160A"/>
<path fill-rule="evenodd" clip-rule="evenodd" d="M58.668 172.03C58.7204 172.223 58.4905 172.34 58.3184 172.362C57.9925 172.403 57.6666 172.444 57.3404 172.485C57.0889 172.517 56.727 172.431 56.755 172.136C57.2031 171.583 57.9934 171.468 58.5437 171.875C58.5961 171.914 58.6493 171.961 58.668 172.03Z" fill="#00160A"/>
<path fill-rule="evenodd" clip-rule="evenodd" d="M146.625 193.421C146.559 192.696 146.574 191.844 147.065 191.396C147.496 191.002 148.109 191.095 148.647 191.208C149.502 191.387 150.357 191.566 151.212 191.745C151.88 191.884 152.595 192.019 153.216 191.699C153.712 191.443 154.28 191.717 154.822 191.722C155.264 191.727 155.69 191.55 156.106 191.375C157.383 190.839 158.659 190.303 159.935 189.766C160.17 189.668 160.431 189.57 160.661 189.679C161.012 189.847 161.091 190.377 161.118 190.819C161.149 191.323 161.18 191.826 161.211 192.33C161.248 192.945 161.283 193.588 161.076 194.156C160.87 194.723 160.342 195.183 159.832 195.029C158.514 194.631 157.174 194.336 155.823 194.148C155.551 194.11 155.196 194.132 155.107 194.436C154.901 195.131 154.052 195.019 153.433 194.897C152.012 194.616 150.498 195.054 149.353 196.077C149.046 196.351 148.759 196.669 148.405 196.849C148.051 197.028 147.599 197.038 147.318 196.728C147.126 196.517 147.05 196.202 146.989 195.902C146.821 195.086 146.7 194.256 146.625 193.421ZM153.035 192.842C151.311 192.459 149.578 192.128 147.839 191.849C147.564 191.805 147.309 192.071 147.219 192.377C147.128 192.683 147.163 193.019 147.203 193.34C147.291 194.044 147.396 194.745 147.52 195.441C147.559 195.659 147.605 195.887 147.731 196.054C147.858 196.22 148.093 196.296 148.241 196.155C149.183 195.259 150.299 194.613 151.481 194.282C151.836 194.183 152.205 194.108 152.519 193.89C152.833 193.671 153.085 193.266 153.035 192.842ZM157.944 191.282C157.026 191.579 156.051 191.916 155.434 192.764C155.246 193.022 155.207 193.571 155.497 193.558C156.939 193.494 158.392 193.758 159.75 194.329C160.038 194.451 160.364 194.209 160.501 193.887C160.637 193.566 160.633 193.19 160.625 192.831C160.611 192.155 160.597 191.479 160.583 190.802C160.581 190.694 160.568 190.564 160.484 190.516C160.429 190.484 160.363 190.502 160.303 190.522C159.517 190.775 158.73 191.029 157.944 191.282ZM153.458 193.792C153.499 193.952 153.557 194.112 153.664 194.22C153.927 194.485 154.37 194.295 154.546 193.945C154.723 193.595 154.705 193.159 154.665 192.756C154.617 192.272 153.999 192.114 153.686 192.435C153.373 192.756 153.341 193.325 153.458 193.792Z" fill="#00160A"/>
<path fill-rule="evenodd" clip-rule="evenodd" d="M163.735 180.811C162.971 180.702 162.182 180.842 161.481 181.211C161.299 181.307 161.123 180.993 161.202 180.78C161.28 180.566 161.485 180.465 161.673 180.387C162.756 179.941 164.132 179.721 164.905 180.715C164.574 180.98 164.132 180.868 163.735 180.811Z" fill="#00160A"/>
<path fill-rule="evenodd" clip-rule="evenodd" d="M155.398 185.55C155.416 186.241 154.857 186.802 154.276 186.925C153.696 187.048 153.105 186.845 152.54 186.645C152.049 186.47 151.896 185.662 152.155 185.143C152.414 184.624 152.939 184.367 153.446 184.27C153.864 184.19 154.307 184.198 154.691 184.407C155.075 184.616 155.385 185.055 155.398 185.55ZM152.675 185.716C152.703 185.922 152.91 186.013 153.084 186.062C153.421 186.159 153.769 186.257 154.112 186.197C154.456 186.137 154.798 185.881 154.888 185.488C154.378 184.871 153.466 184.786 152.879 185.302C152.764 185.402 152.653 185.55 152.675 185.716Z" fill="#00160A"/>
<path fill-rule="evenodd" clip-rule="evenodd" d="M146.563 182.028C145.544 182.031 144.525 182.034 143.506 182.036C143.291 182.037 142.988 181.905 143.061 181.668C144.125 181.127 145.36 181.061 146.462 181.487C146.665 181.566 146.886 181.886 146.697 182.003C146.657 182.028 146.609 182.028 146.563 182.028Z" fill="#00160A"/>
<path fill-rule="evenodd" clip-rule="evenodd" d="M157.837 177.489C157.895 177.063 157.995 176.57 158.332 176.394C158.656 176.225 159.05 176.466 159.237 176.82C159.424 177.173 159.455 177.606 159.482 178.02C159.022 178.069 158.563 178.118 158.103 178.168C157.857 178.194 157.798 177.775 157.837 177.489Z" fill="#00160A"/>
<path fill-rule="evenodd" clip-rule="evenodd" d="M161.827 182.583C161.679 182.547 161.526 182.509 161.403 182.406C161.314 182.333 161.244 182.227 161.206 182.108C162.244 181.596 163.567 182.06 164.193 183.157C163.405 182.966 162.616 182.774 161.827 182.583Z" fill="#00160A"/>
<path fill-rule="evenodd" clip-rule="evenodd" d="M159.691 175.174C159.955 174.68 160.614 174.912 161.012 175.262C161.404 175.607 161.756 176.016 162.053 176.474C162.04 176.743 161.682 176.682 161.489 176.535C160.89 176.082 160.291 175.628 159.691 175.174Z" fill="#00160A"/>
<path fill-rule="evenodd" clip-rule="evenodd" d="M145.283 183.332C145.703 183.164 146.124 182.996 146.544 182.828C146.712 182.76 146.892 182.692 147.065 182.742C147.238 182.792 147.387 183.011 147.321 183.205C146.495 183.565 145.659 183.894 144.814 184.187C144.68 184.052 144.708 183.785 144.824 183.628C144.94 183.472 145.116 183.399 145.283 183.332Z" fill="#00160A"/>
<path fill-rule="evenodd" clip-rule="evenodd" d="M148.768 177.132C148.928 177.259 149.011 177.48 149.086 177.689C149.185 177.967 149.286 178.267 149.232 178.562C149.178 178.856 148.896 179.11 148.664 178.978C148.402 178.828 148.117 179.378 147.859 179.219C147.737 179.144 147.713 178.954 147.704 178.793C147.68 178.359 147.661 177.899 147.836 177.517C148.012 177.134 148.46 176.888 148.768 177.132Z" fill="#00160A"/>
<path fill-rule="evenodd" clip-rule="evenodd" d="M145.563 176.938C145.95 175.824 147.061 175.126 148.068 175.364C148.205 175.397 148.374 175.517 148.326 175.67C148.3 175.751 148.223 175.79 148.153 175.82C147.29 176.193 146.427 176.565 145.563 176.938Z" fill="#00160A"/>
<path fill-rule="evenodd" clip-rule="evenodd" d="M150.705 182.569C150.488 182.601 150.212 182.577 150.13 182.34C150.276 182.203 150.45 182.059 150.631 182.108C150.813 182.158 150.879 182.528 150.696 182.573L150.705 182.569Z" fill="#00160A"/>
<path fill-rule="evenodd" clip-rule="evenodd" d="M155.049 182.205C155.277 182.16 155.398 181.784 155.251 181.575C155.103 181.366 154.765 181.432 154.684 181.686C154.603 181.939 154.821 182.249 155.049 182.205Z" fill="#00160A"/>
<path fill-rule="evenodd" clip-rule="evenodd" d="M149.978 184.017C149.659 183.963 149.247 183.719 149.346 183.359C149.698 183.121 150.135 183.325 150.538 183.393C150.94 183.461 151.484 183.203 151.417 182.733C151.484 182.931 151.552 183.129 151.619 183.327C152.029 183.199 152.411 182.953 152.723 182.618C152.9 182.428 153.057 182.101 152.9 181.889C152.538 181.397 152.932 180.476 153.485 180.522C154.039 180.567 154.32 181.543 153.902 181.971C153.794 182.082 153.903 182.285 154.015 182.391C154.798 183.126 155.89 183.388 156.857 183.071C157.289 182.93 157.842 182.722 158.116 183.137C156.737 184.303 154.641 184.1 153.444 182.686C152.77 183.972 151.254 184.233 149.978 184.017Z" fill="#00160A"/>
<path fill-rule="evenodd" clip-rule="evenodd" d="M156.476 181.804C156.61 181.874 156.63 182.127 156.511 182.225C156.392 182.323 156.196 182.217 156.184 182.047C156.234 181.92 156.35 181.834 156.47 181.836L156.476 181.804Z" fill="#00160A"/>
<path fill-rule="evenodd" clip-rule="evenodd" d="M151.469 181.982C151.608 182.232 152.016 181.921 151.877 181.671C151.738 181.42 151.33 181.732 151.469 181.982Z" fill="#00160A"/>
<path fill-rule="evenodd" clip-rule="evenodd" d="M139.873 107.507C139.337 107.577 138.76 107.73 138.286 107.43C138.847 106.812 139.684 106.692 140.453 106.736C141.757 106.812 143.043 107.276 144.157 108.071C143.923 108.576 143.277 108.328 142.834 108.083C141.917 107.578 140.88 107.376 139.873 107.507Z" fill="#00160A"/>
<path fill-rule="evenodd" clip-rule="evenodd" d="M158.706 102.264C158.62 101.887 158.616 101.579 158.91 101.395C159.338 101.127 160.688 101.152 160.834 101.542C160.98 101.931 160.425 103.724 159.646 103.724C159.334 103.724 158.791 102.641 158.706 102.264Z" fill="#00160A"/>
<path fill-rule="evenodd" clip-rule="evenodd" d="M167.275 106.705C165.598 106.827 163.938 107.256 162.373 107.97C162.158 108.068 161.828 108.107 161.78 107.843C162.053 107.306 162.601 107.065 163.114 106.889C164.262 106.497 165.444 106.239 166.636 106.123C166.808 106.106 166.993 106.094 167.143 106.194C167.294 106.293 167.382 106.546 167.275 106.705Z" fill="#00160A"/>
<path fill-rule="evenodd" clip-rule="evenodd" d="M167.612 108.906C166.286 109.045 164.96 109.184 163.634 109.322C163.392 109.348 163.03 109.159 163.169 108.926C164.533 108.427 165.966 108.184 167.394 108.208C167.747 108.215 168.158 108.274 168.343 108.626C168.156 108.84 167.873 108.879 167.612 108.906Z" fill="#00160A"/>
<path fill-rule="evenodd" clip-rule="evenodd" d="M148.115 103.853C147.834 104.24 147.264 104.13 146.963 103.764C146.661 103.398 146.559 102.874 146.468 102.377C146.421 102.118 146.38 101.824 146.511 101.609C146.65 101.383 148.574 101.367 148.665 101.56C148.756 101.754 148.7 101.917 148.665 102.068C148.602 102.341 148.318 103.573 148.115 103.853Z" fill="#00160A"/>
<path fill-rule="evenodd" clip-rule="evenodd" d="M138.069 109.992C139.742 109.186 141.608 108.94 143.391 109.292C143.582 109.329 143.792 109.388 143.901 109.576C144.009 109.764 143.905 110.099 143.713 110.067C141.641 109.722 139.392 109.747 137.629 111.067C137.444 110.943 137.431 110.614 137.549 110.407C137.667 110.2 137.872 110.087 138.069 109.992Z" fill="#00160A"/>
<path fill-rule="evenodd" clip-rule="evenodd" d="M150.347 111.921C150.261 111.631 150.445 111.276 150.705 111.232C150.808 111.311 150.876 111.451 150.882 111.595C150.801 111.819 150.589 111.967 150.382 111.943L150.347 111.921Z" fill="#00160A"/>
<path fill-rule="evenodd" clip-rule="evenodd" d="M147.643 99.3592C147.932 99.3644 148.33 99.5913 148.203 99.8962C146.944 99.9825 145.7 100.373 144.573 101.035C144.406 101.015 144.327 100.757 144.392 100.577C144.456 100.396 144.608 100.284 144.755 100.19C145.636 99.6303 146.641 99.3411 147.643 99.3592Z" fill="#00160A"/>
<path fill-rule="evenodd" clip-rule="evenodd" d="M154.67 111.673C154.854 111.442 155.223 111.48 155.369 111.745C155.226 112.065 154.746 112.033 154.634 111.697L154.67 111.673Z" fill="#00160A"/>
<path fill-rule="evenodd" clip-rule="evenodd" d="M155.947 111.519C156.074 111.302 156.437 111.489 156.385 111.746C156.332 111.876 156.211 111.963 156.089 111.963C155.947 111.9 155.878 111.678 155.95 111.523L155.947 111.519Z" fill="#00160A"/>
<path fill-rule="evenodd" clip-rule="evenodd" d="M151.614 110.337C151.487 110.555 151.124 110.366 151.176 110.11C151.23 109.981 151.349 109.893 151.472 109.893C151.614 109.956 151.683 110.178 151.611 110.334L151.614 110.337Z" fill="#00160A"/>
<path fill-rule="evenodd" clip-rule="evenodd" d="M149.473 110.931C149.462 111.183 149.73 111.386 149.922 111.272C150.114 111.157 150.13 110.784 149.95 110.646C149.769 110.509 149.484 110.679 149.473 110.931Z" fill="#00160A"/>
<path fill-rule="evenodd" clip-rule="evenodd" d="M154.934 110.774C155.118 110.934 155.429 110.778 155.456 110.513C155.484 110.246 155.212 110.009 155.002 110.114C154.791 110.22 154.751 110.614 154.934 110.774Z" fill="#00160A"/>
<path fill-rule="evenodd" clip-rule="evenodd" d="M158.335 100.113C159.411 99.2012 160.902 99.6195 162.173 100.075C162.372 100.146 162.621 100.36 162.506 100.563C162.438 100.684 162.288 100.681 162.164 100.663C160.888 100.48 159.611 100.296 158.335 100.113Z" fill="#00160A"/>
<path fill-rule="evenodd" clip-rule="evenodd" d="M153.518 110.774C153.906 112.184 155.298 113.098 156.528 112.75C157.069 112.596 157.687 112.252 158.13 112.645C157.352 113.408 156.258 113.704 155.273 113.419C154.288 113.134 153.438 112.275 153.053 111.177C152.291 112.42 151.082 113.276 149.786 113.488C149.593 113.52 149.373 113.529 149.227 113.378C149.081 113.227 149.119 112.865 149.314 112.849C150.383 112.762 151.421 112.213 152.182 111.33C152.595 110.851 152.935 110.08 152.605 109.52C152.297 108.997 152.049 108.427 151.87 107.827C151.804 107.605 151.753 107.339 151.875 107.152C151.965 107.013 152.122 106.966 152.266 106.927C152.706 106.809 153.161 106.691 153.605 106.789C154.048 106.887 154.48 107.263 154.546 107.785C154.684 108.889 153.226 109.712 153.518 110.774Z" fill="#00160A"/>
<path fill-rule="evenodd" clip-rule="evenodd" d="M65.7553 106.968C65.8507 106.643 66.3684 106.755 66.3577 107.099C66.2494 107.422 65.7359 107.303 65.741 106.956L65.7553 106.968Z" fill="#00160A"/>
<path fill-rule="evenodd" clip-rule="evenodd" d="M61.0848 108.464C61.0259 108.117 60.4598 108.249 60.5186 108.595C60.5775 108.942 61.1436 108.811 61.0848 108.464Z" fill="#00160A"/>
<path fill-rule="evenodd" clip-rule="evenodd" d="M61.8876 109.051C62.0231 108.855 62.2622 108.768 62.4691 108.837C62.5369 108.936 62.5583 109.075 62.5238 109.195C62.3704 109.269 62.217 109.342 62.0636 109.415C61.9985 109.3 61.9336 109.185 61.8685 109.071L61.8876 109.051Z" fill="#00160A"/>
<path fill-rule="evenodd" clip-rule="evenodd" d="M61.9553 108.229C61.8525 108.145 61.7832 108.006 61.771 107.86C61.8828 107.588 62.2791 107.585 62.3942 107.855C62.2884 108.033 62.1317 108.17 61.9553 108.236V108.229Z" fill="#00160A"/>
<path fill-rule="evenodd" clip-rule="evenodd" d="M58.3487 109.125C58.1953 109.359 57.8492 109.055 57.8905 108.764C57.9318 108.473 58.1647 108.284 58.3615 108.1C58.7819 107.707 59.1206 107.195 59.5782 106.865C60.0358 106.534 60.6911 106.439 61.0726 106.882C59.9989 107.284 59.0347 108.078 58.3487 109.125Z" fill="#00160A"/>
<path fill-rule="evenodd" clip-rule="evenodd" d="M57.0351 105.944C57.6574 105.262 58.4311 104.772 59.2588 104.534C59.4355 104.483 59.6287 104.446 59.794 104.534C59.9594 104.623 60.064 104.89 59.9531 105.058C58.9 105.277 57.9086 105.888 57.1582 106.78C57.0217 106.943 56.763 106.747 56.7562 106.519C56.7491 106.292 56.893 106.099 57.0351 105.944Z" fill="#00160A"/>
<path fill-rule="evenodd" clip-rule="evenodd" d="M64.9159 107.19C64.8969 107.023 65.1416 107.114 65.2147 107.259C65.1151 107.432 65.0158 107.606 64.9162 107.78C64.7096 107.702 64.7 107.287 64.9028 107.197L64.9159 107.19Z" fill="#00160A"/>
<path fill-rule="evenodd" clip-rule="evenodd" d="M71.0719 106.281C70.1713 105.956 69.2709 105.632 68.3703 105.307C68.1598 105.231 67.9291 105.137 67.8223 104.912C69.0652 104.582 70.4323 104.972 71.4067 105.933C71.4477 105.974 71.4902 106.019 71.5036 106.08C71.5512 106.296 71.2536 106.346 71.0719 106.281Z" fill="#00160A"/>
<path fill-rule="evenodd" clip-rule="evenodd" d="M65.1077 108.176C65.2079 108.035 65.4208 108.039 65.5174 108.183C65.6137 108.328 65.5659 108.57 65.4252 108.65C65.2159 108.626 65.036 108.406 65.0253 108.16L65.1077 108.176Z" fill="#00160A"/>
<path fill-rule="evenodd" clip-rule="evenodd" d="M70.4362 108.566C69.502 108.182 68.5681 107.799 67.6341 107.415C67.5577 107.384 67.4768 107.349 67.4278 107.273C67.3204 107.108 67.4447 106.85 67.6145 106.788C67.784 106.726 67.966 106.796 68.1334 106.865C68.6367 107.071 69.1398 107.278 69.6432 107.484C70.074 107.661 70.6048 108.07 70.4362 108.566Z" fill="#00160A"/>
<path fill-rule="evenodd" clip-rule="evenodd" d="M192.751 61.0991C196.142 62.7061 198.449 66.5755 199.519 70.6701C200.589 74.765 200.6 79.1213 200.601 83.4031C200.612 115.128 200.623 146.854 200.634 178.579C200.634 183.22 200.603 188.044 198.883 192.225C197.306 196.059 194.321 199.064 190.846 200.316C188.325 201.225 185.64 201.231 183.002 201.231C133.046 201.221 83.0901 201.211 33.1345 201.201C30.6456 201.2 27.9845 201.14 25.9358 199.486C22.6551 196.838 22.3307 191.411 22.3294 186.746C22.3196 150.498 22.3098 114.25 22.3 78.0024C22.3 75.3082 22.3081 72.5482 23.1035 70.02C24.4765 65.6561 28.043 62.6396 31.8343 61.249C35.6259 59.8584 39.672 59.8511 43.6453 59.8556C52.6357 59.8678 61.6265 59.8793 70.6173 59.8908C108.996 59.9395 147.374 59.9886 185.752 60.0377C188.12 60.0408 190.556 60.0585 192.751 61.0991ZM109.172 200.47C109.15 177.404 109.129 154.338 109.108 131.273C80.7623 131.286 52.4166 131.3 24.0711 131.313C23.8271 131.313 23.5541 131.327 23.3858 131.534C23.2279 131.728 23.2185 132.025 23.2183 132.293C23.2056 151.648 23.1929 171.004 23.1801 190.359C23.1801 191.367 23.1801 192.385 23.362 193.37C23.9651 196.631 26.5049 199.014 29.2271 200.003C31.9494 200.992 34.8641 200.842 37.7123 200.717C48.7407 200.235 59.7804 200.278 70.8165 200.321C83.6015 200.37 96.3866 200.42 109.172 200.47ZM109.899 131.374C109.916 154.378 109.932 177.383 109.949 200.388C134.795 200.361 159.64 200.333 184.485 200.306C186.354 200.304 188.242 200.299 190.059 199.791C194.335 198.594 197.871 194.492 199.13 189.562C199.874 186.65 199.874 183.56 199.868 180.52C199.836 164.097 199.804 147.675 199.772 131.252C169.815 131.293 139.857 131.333 109.899 131.374ZM109.891 61.0677C109.916 84.1325 109.942 107.197 109.968 130.262C139.652 130.264 169.337 130.266 199.021 130.269C199.268 130.269 199.552 130.249 199.703 130.02C199.811 129.855 199.816 129.631 199.816 129.424C199.82 112.612 199.825 95.7995 199.829 78.9876C199.829 76.5057 199.827 73.9924 199.295 71.5899C197.842 65.0248 192.069 60.1636 186.289 60.6376C182.002 60.9887 177.702 60.9936 173.405 60.9985C152.233 61.0214 131.062 61.0448 109.891 61.0677ZM109.17 130.173C109.147 107.111 109.123 84.0489 109.099 60.987C84.6246 60.9769 60.1499 60.9668 35.6752 60.9564C29.9031 60.9539 24.458 66.2714 23.4261 72.9182C23.157 74.6512 23.1587 76.4243 23.1607 78.1858C23.1856 95.519 23.21 112.853 23.2344 130.186C51.8793 130.325 80.525 130.321 109.17 130.173Z" fill="white"/>
<path fill-rule="evenodd" clip-rule="evenodd" d="M64.2243 107.192C64.0501 107.725 64.2716 108.342 64.6215 108.74C65.1321 109.319 65.9182 109.542 66.5982 109.298C67.0876 109.123 67.6805 108.756 68.043 109.179C66.9636 110.451 64.9147 110.272 64.0093 108.826C63.7263 109.689 63.0787 110.377 62.3169 110.622C61.5551 110.868 60.6982 110.665 60.0777 110.093C60.5338 109.651 61.2099 109.996 61.8025 110C62.429 110.004 63.0415 109.555 63.3121 108.894C63.5827 108.233 63.4976 107.393 63.1022 106.824C62.6987 106.244 62.3868 105.578 62.1858 104.868C62.1391 104.703 62.0987 104.524 62.1436 104.359C62.2357 104.021 62.6065 103.941 62.9089 103.924C63.5291 103.887 64.1503 103.868 64.7711 103.864C65.0696 103.863 65.4312 103.91 65.5564 104.227C65.639 104.436 65.5796 104.681 65.507 104.895C65.3182 105.452 65.0467 105.971 64.7084 106.421C64.5273 106.662 64.3221 106.892 64.2243 107.192Z" fill="#00160A"/>
<path fill-rule="evenodd" clip-rule="evenodd" d="M69.5338 92.9999C68.6156 92.8001 67.6487 92.9205 66.7873 93.3416C66.6675 93.4001 66.5295 93.4641 66.4139 93.3952C66.2729 93.3106 66.2584 93.0636 66.3461 92.9094C66.4338 92.7549 66.5875 92.6734 66.7356 92.607C68.2591 91.9232 70.0366 92.0631 71.4682 92.9793C70.9226 93.4237 70.187 93.1422 69.5338 92.9999Z" fill="#00160A"/>
<path fill-rule="evenodd" clip-rule="evenodd" d="M69.0842 98.4301C69.0069 98.6072 68.9135 98.7899 68.7619 98.88C68.5371 99.014 68.2448 98.8887 68.0914 98.6542C67.938 98.4196 67.9008 98.1057 67.9196 97.8113C67.9576 97.2096 68.4027 96.5341 68.888 96.7381C69.4083 96.9566 69.3358 97.8538 69.0842 98.4301Z" fill="#00160A"/>
<path fill-rule="evenodd" clip-rule="evenodd" d="M60.1731 97.4014C60.2278 97.9129 60.0346 98.4857 59.635 98.7025C59.2353 98.919 58.6668 98.6256 58.624 98.1123C58.6092 97.9338 58.6538 97.7567 58.7004 97.5858C58.8363 97.0875 59.1158 96.5015 59.5612 96.546C59.904 96.5801 60.1306 97.0019 60.1731 97.4014Z" fill="#00160A"/>
<path fill-rule="evenodd" clip-rule="evenodd" d="M56.2816 93.7355C56.2106 93.4683 56.4871 93.264 56.7154 93.1805C58.0612 92.6881 59.5157 92.6101 60.8945 92.956C61.0972 93.0072 61.3202 93.0858 61.4216 93.2977C61.5227 93.5093 61.3678 93.8563 61.171 93.7804C59.8169 93.2598 58.3133 93.2887 56.9747 93.8619C56.7273 93.968 56.3601 94.03 56.2816 93.7355Z" fill="#00160A"/>
<path fill-rule="evenodd" clip-rule="evenodd" d="M76.1491 80.2725C76.0168 82.7293 75.8845 85.1935 76.0085 87.6508C76.1051 89.5637 76.357 91.4655 76.3799 93.3816C76.4465 98.9194 74.5914 104.283 72.0682 108.968C78.1261 113.737 82.6932 121.042 84.743 129.243C83.8697 128.606 83.4942 127.37 83.1276 126.244C81.1027 120.028 77.5395 114.51 72.9822 110.534C72.3287 109.963 71.2179 109.532 70.8563 110.387C70.0398 112.319 68.833 114.024 67.3623 115.321C66.8289 115.792 66.2319 116.257 65.815 116.848C65.8186 116.896 65.8204 116.945 65.8204 116.994C65.8204 117.994 65.1282 118.804 64.2742 118.804C63.6939 118.804 63.1881 118.43 62.9235 117.876C59.0745 115.895 55.9424 112.05 54.4691 107.436C51.6548 109.72 50.032 113.608 49.41 117.55C48.7876 121.491 49.0523 125.542 49.3187 129.538C49.0377 129.761 48.7749 129.223 48.7427 128.827C48.4181 124.826 48.2358 120.752 48.9449 116.819C49.6544 112.887 51.3495 109.065 54.1497 106.738C51.5508 100.115 52.5617 91.991 49.3909 85.7187C49.2027 85.3463 49.0442 84.7655 49.374 84.5692C49.4962 84.4965 49.6422 84.5191 49.7772 84.5459C51.9881 84.9851 54.0947 86.1227 55.8142 87.807C56.2578 88.2417 56.9218 87.9243 57.44 87.624C61.4237 85.315 66.181 84.9012 70.4124 86.4961C71.4757 84.105 73.0417 82.0233 74.9333 80.4865C75.2985 80.19 75.8209 79.922 76.1491 80.2725ZM62.4837 112.587C63.8473 112.727 65.2364 112.865 66.5726 112.518C69.6289 111.724 71.8215 108.559 73.2219 105.282C74.8251 101.529 75.7234 97.3666 75.8349 93.1725C74.8462 94.1034 73.8579 95.0339 72.8693 95.9645C72.2838 96.5154 71.6442 97.194 71.6555 98.0734C71.6716 99.3234 71.0097 100.551 70.0383 101.072C69.0673 101.593 67.8408 101.379 67.0418 100.548C66.1403 99.6115 65.6283 97.915 64.4271 97.7915C63.0106 97.6457 62.3359 99.7716 61.196 100.767C59.7438 102.035 57.3996 101.083 56.6744 99.1389C56.5364 98.7694 56.5858 98.113 56.27 97.8879C55.2624 97.1699 54.1498 97.1439 52.837 97.195C53.071 100.543 53.7635 103.847 54.88 106.941C55.3748 108.313 55.9778 109.682 56.9488 110.643C58.4447 112.123 60.5323 112.387 62.4837 112.587ZM70.691 87.2551C70.2503 88.2392 69.5109 89.4712 68.6245 89.0737C69.1939 88.5027 69.6857 87.8262 70.0764 87.0769C65.6649 85.6049 60.7776 86.1919 56.7137 88.6819C57.0633 89.1771 57.4936 89.5947 57.9743 89.9051C57.4656 90.4723 56.6807 89.777 56.1993 89.1781C54.561 87.1392 52.3211 85.7754 49.9544 85.3748C50.9258 87.1991 51.8234 90.8127 52.6482 96.2154C53.9844 96.5693 54.8827 96.7517 55.3427 96.7631C55.8722 96.7764 56.5171 96.712 56.7487 96.1545C57.3601 94.6818 58.8913 93.8225 60.2555 94.1873C61.6194 94.5516 62.6802 96.1037 62.685 97.741C63.5696 97.0628 64.7533 96.9552 65.7169 97.4654C65.8174 96.0717 66.7192 94.8056 67.8726 94.4399C69.0256 94.0738 70.3506 94.633 71.0386 95.7762C71.338 96.2735 72.0005 95.9081 72.3977 95.5156C73.2204 94.7023 74.0434 93.8887 74.8662 93.0754C75.3297 92.6171 75.8399 92.0223 75.7427 91.3211C75.2613 87.8488 75.2012 84.2967 75.5646 80.8049C73.5282 82.4541 71.8402 84.6879 70.691 87.2551ZM68.588 112.256C66.6074 113.83 63.9936 113.556 61.617 113.219C60.3188 113.035 58.9755 112.833 57.8593 112.035C57.6297 111.872 57.3291 111.684 57.1171 111.877C58.448 113.821 60.1707 115.394 62.1052 116.431C62.3927 116.586 62.8167 116.676 62.9529 116.343C63.2663 115.575 64.2172 115.29 64.8071 115.788C65.287 116.193 65.9503 115.804 66.4243 115.39C67.489 114.46 68.461 113.385 69.3137 112.193C69.1892 111.904 68.8169 112.074 68.588 112.256ZM57.3577 99.2092C57.9547 100.389 59.3165 100.945 60.4107 100.455C61.5049 99.9658 62.2033 98.4889 61.9762 97.1438C61.749 95.7992 60.623 94.7437 59.4521 94.7785C58.2812 94.8129 57.2022 95.9335 57.0336 97.29C56.9515 97.9481 57.0681 98.6375 57.3577 99.2092ZM66.4528 97.17C66.3122 98.1444 66.6383 99.1713 67.2288 99.8774C67.6627 100.396 68.2606 100.762 68.8802 100.736C69.9881 100.688 70.7939 99.4476 71.1358 98.2133C71.2247 97.8914 71.2949 97.5493 71.2408 97.2169C71.1703 96.7854 70.9027 96.4367 70.6229 96.1437C69.9212 95.4087 68.9745 94.8512 68.0563 95.0983C67.2339 95.3196 66.5934 96.1959 66.4528 97.17Z" fill="#00160A"/>
</svg>
